<svg xmlns="http://www.w3.org/2000/svg" xmlns:xlink="http://www.w3.org/1999/xlink" width="150" zoomAndPan="magnify" viewBox="0 0 112.5 30.000001" height="40" preserveAspectRatio="xMidYMid meet" version="1.0"><defs><filter x="0%" y="0%" width="100%" xlink:type="simple" xlink:actuate="onLoad" height="100%" id="id1" xlink:show="other"><feColorMatrix values="0 0 0 0 1 0 0 0 0 1 0 0 0 0 1 0 0 0 1 0" color-interpolation-filters="sRGB"/></filter><g><g id="id2"/><g id="id3"/></g><mask id="id4"><g filter="url(#id1)"><rect x="-11.25" width="135" fill="rgb(0%, 0%, 0%)" y="-3" height="36.000001" fill-opacity="0.9294"/></g></mask><clipPath id="id5"><path d="M 0.417969 3 L 22.945312 3 L 22.945312 20 L 0.417969 20 Z M 0.417969 3 " clip-rule="nonzero"/></clipPath><clipPath id="id6"><rect x="0" width="23" y="0" height="22"/></clipPath></defs><g fill="rgb(7.058716%, 7.058716%, 7.058716%)" fill-opacity="0.4"><g transform="translate(65.877456, 21.540203)"><g><path d="M 4.421875 -0.53125 C 4.421875 -0.332031 4.375 -0.191406 4.28125 -0.109375 C 4.1875 -0.0351562 4.03125 0 3.8125 0 L 1.078125 0 C 0.890625 0 0.757812 -0.0351562 0.6875 -0.109375 C 0.613281 -0.179688 0.578125 -0.296875 0.578125 -0.453125 L 0.578125 -3.265625 C 0.578125 -3.398438 0.609375 -3.5 0.671875 -3.5625 C 0.734375 -3.632812 0.820312 -3.671875 0.9375 -3.671875 L 4.09375 -3.671875 C 4.3125 -3.671875 4.421875 -3.546875 4.421875 -3.296875 Z M 4.421875 -0.53125 "/></g></g></g><g fill="rgb(9.408569%, 9.01947%, 9.01947%)" fill-opacity="1"><g transform="translate(65.070722, 20.733468)"><g><path d="M 4.421875 -0.53125 C 4.421875 -0.332031 4.375 -0.191406 4.28125 -0.109375 C 4.1875 -0.0351562 4.03125 0 3.8125 0 L 1.078125 0 C 0.890625 0 0.757812 -0.0351562 0.6875 -0.109375 C 0.613281 -0.179688 0.578125 -0.296875 0.578125 -0.453125 L 0.578125 -3.265625 C 0.578125 -3.398438 0.609375 -3.5 0.671875 -3.5625 C 0.734375 -3.632812 0.820312 -3.671875 0.9375 -3.671875 L 4.09375 -3.671875 C 4.3125 -3.671875 4.421875 -3.546875 4.421875 -3.296875 Z M 4.421875 -0.53125 "/></g></g></g><g fill="rgb(0%, 0%, 0%)" fill-opacity="1"><g transform="translate(46.047249, 21.768737)"><g><path d="M 13.046875 -13.953125 C 13.234375 -13.953125 13.328125 -13.84375 13.328125 -13.625 L 13.328125 -0.34375 C 13.328125 -0.238281 13.285156 -0.15625 13.203125 -0.09375 C 13.117188 -0.03125 13.015625 0 12.890625 0 L 10.3125 0 C 10.207031 0 10.117188 -0.015625 10.046875 -0.046875 C 9.972656 -0.0859375 9.894531 -0.164062 9.8125 -0.28125 L 4.640625 -7.296875 C 4.585938 -7.359375 4.539062 -7.378906 4.5 -7.359375 C 4.46875 -7.347656 4.453125 -7.3125 4.453125 -7.25 L 4.453125 -0.40625 C 4.460938 -0.257812 4.429688 -0.15625 4.359375 -0.09375 C 4.296875 -0.03125 4.175781 0 4 0 L 1.453125 0 C 1.140625 0 0.984375 -0.125 0.984375 -0.375 L 0.984375 -13.515625 C 0.984375 -13.804688 1.117188 -13.953125 1.390625 -13.953125 L 4.453125 -13.953125 C 4.617188 -13.953125 4.738281 -13.925781 4.8125 -13.875 C 4.894531 -13.832031 4.988281 -13.742188 5.09375 -13.609375 L 9.609375 -7.328125 C 9.679688 -7.210938 9.75 -7.15625 9.8125 -7.15625 C 9.875 -7.15625 9.90625 -7.238281 9.90625 -7.40625 L 9.90625 -13.546875 C 9.90625 -13.816406 10.039062 -13.953125 10.3125 -13.953125 Z M 13.046875 -13.953125 "/></g></g></g><path stroke-linecap="butt" transform="matrix(0.151878, 0, 0, 0.151878, 22.10752, 4.955423)" fill="none" stroke-linejoin="miter" d="M 238.793011 14.207811 C 240.027552 14.207811 240.644822 14.902241 240.644822 16.291099 L 240.644822 103.76347 C 240.644822 104.432179 240.361906 104.972291 239.821795 105.383805 C 239.307403 105.795318 238.612973 106.001075 237.789946 106.001075 L 220.840728 106.001075 C 220.120579 106.001075 219.503308 105.872477 219.040355 105.641001 C 218.603122 105.383805 218.08873 104.895132 217.497179 104.149264 L 183.495864 58.008296 C 183.135789 57.571062 182.852874 57.416745 182.621397 57.493903 C 182.364201 57.571062 182.261323 57.828258 182.261323 58.239772 L 182.261323 103.274797 C 182.338482 104.277862 182.132725 104.972291 181.669772 105.383805 C 181.232539 105.795318 180.435231 106.001075 179.252129 106.001075 L 162.431509 106.001075 C 160.373941 106.001075 159.345157 105.178048 159.345157 103.531993 L 159.345157 17.036968 C 159.345157 15.159437 160.271062 14.207811 162.071434 14.207811 L 182.261323 14.207811 C 183.315827 14.207811 184.113134 14.336409 184.627526 14.619325 C 185.193358 14.902241 185.784909 15.519511 186.453618 16.445417 L 216.13404 57.751099 C 216.648432 58.496968 217.085666 58.857042 217.497179 58.857042 C 217.934413 58.857042 218.140169 58.316931 218.140169 57.236707 L 218.140169 16.805491 C 218.140169 15.082278 219.040355 14.207811 220.840728 14.207811 Z M 238.793011 14.207811 " stroke="rgb(9.408569%, 9.01947%, 9.01947%)" stroke-width="0.85063" stroke-opacity="1" stroke-miterlimit="4"/><g mask="url(#id4)"><g transform="matrix(1, 0, 0, 1, 49, 5)"><g clip-path="url(#id6)"><g clip-path="url(#id5)"><path stroke-linecap="butt" transform="matrix(0.0802339, 0.0896516, -0.0896516, 0.0802339, -0.477437, -15.308957)" fill="none" stroke-linejoin="miter" d="M 254.226733 92.570195 C 252.602952 103.926987 248.814639 111.908772 242.861796 116.515549 C 236.908953 121.122327 228.275688 123.4174 216.940351 123.424962 C 210.088972 123.436879 204.024697 122.71536 198.658377 121.311333 C 196.745653 120.819538 195.52316 120.335466 194.969246 119.883311 C 194.41279 119.38531 194.1862 118.616094 194.381169 117.570582 L 198.402537 98.860943 C 198.573312 97.793779 198.880305 97.109951 199.29678 96.741962 C 199.734907 96.349779 200.347474 96.200854 201.112827 96.31938 C 204.24174 96.766748 206.807793 97.015385 208.808446 97.019444 C 212.715518 96.9868 215.917208 95.843587 218.362589 93.500657 C 220.853816 91.155185 222.429543 87.641814 223.10888 82.890503 L 232.229664 18.463171 C 232.33294 17.422742 232.572435 16.76565 232.923954 16.470242 C 233.345512 16.193945 233.936426 16.069213 234.785847 16.045118 L 262.630712 16.042073 C 263.873636 16.065145 264.466993 16.814028 264.480823 18.307833 C 264.4731 18.998064 264.433558 19.529105 264.338005 19.879303 Z M 254.226733 92.570195 " stroke="rgb(62.748718%, 62.748718%, 62.748718%)" stroke-width="5.354962" stroke-opacity="1" stroke-miterlimit="4"/></g></g></g></g></svg>